<mxfile host="65bd71144e" modified="2020-11-06T19:31:32.514Z" agent="5.0 (X11; Linux x86_64) AppleWebKit/537.36 (KHTML, like Gecko) Code-Insiders/1.51.0-insider Chrome/83.0.4103.122 Electron/9.3.2 Safari/537.36" etag="De0XaLeKPjVm34RZf8-G" version="13.6.5">
    <diagram id="sgAzwdcBSPgjyHLSnam3" name="Page-1">
        <mxGraphModel dx="864" dy="1876" grid="0" gridSize="10" guides="1" tooltips="1" connect="1" arrows="1" fold="1" page="1" pageScale="1" pageWidth="1169" pageHeight="827" background="#FFFFFF" math="0" shadow="0">
            <root>
                <mxCell id="0"/>
                <mxCell id="1" parent="0"/>
                <mxCell id="199" value="&lt;font style=&quot;font-size: 24px&quot;&gt;&lt;b&gt;Ranger&lt;/b&gt;&lt;/font&gt;" style="text;html=1;strokeColor=none;fillColor=none;align=left;verticalAlign=middle;whiteSpace=wrap;rounded=0;labelBackgroundColor=#ffffff;fontSize=16;" parent="1" vertex="1">
                    <mxGeometry x="14" y="11" width="216" height="29" as="geometry"/>
                </mxCell>
                <mxCell id="jTKj2u-NiL81DQnvxjO0-349" value="1-3" style="rounded=0;orthogonalLoop=1;jettySize=auto;html=1;entryX=0;entryY=0.75;entryDx=0;entryDy=0;fontSize=20;exitX=1.017;exitY=0.34;exitDx=0;exitDy=0;fontStyle=1;strokeWidth=4;endArrow=blockThin;endFill=1;edgeStyle=entityRelationEdgeStyle;strokeColor=#009900;exitPerimeter=0;" parent="1" source="72" target="jTKj2u-NiL81DQnvxjO0-335" edge="1">
                    <mxGeometry relative="1" as="geometry"/>
                </mxCell>
                <mxCell id="jTKj2u-NiL81DQnvxjO0-350" value="4-6" style="rounded=0;orthogonalLoop=1;jettySize=auto;html=1;entryX=0;entryY=0.25;entryDx=0;entryDy=0;fontSize=20;exitX=1.008;exitY=0.665;exitDx=0;exitDy=0;fontStyle=1;strokeWidth=4;endArrow=blockThin;endFill=1;edgeStyle=entityRelationEdgeStyle;strokeColor=#990000;exitPerimeter=0;" parent="1" source="72" target="jTKj2u-NiL81DQnvxjO0-336" edge="1">
                    <mxGeometry relative="1" as="geometry"/>
                </mxCell>
                <mxCell id="72" value="Start" style="rounded=0;whiteSpace=wrap;html=1;labelBackgroundColor=none;fontSize=24;fillColor=#67AB9F;fontColor=#FFFFFF;fontStyle=1" parent="1" vertex="1">
                    <mxGeometry x="20" y="574" width="100" height="100" as="geometry"/>
                </mxCell>
                <mxCell id="85" value="Finish" style="rounded=0;whiteSpace=wrap;html=1;labelBackgroundColor=none;fontSize=24;fontColor=#FFFFFF;fillColor=#EA6B66;fontStyle=1" parent="1" vertex="1">
                    <mxGeometry x="1050" y="574" width="100" height="100" as="geometry"/>
                </mxCell>
                <mxCell id="253" value="1-6" style="edgeStyle=orthogonalEdgeStyle;rounded=0;orthogonalLoop=1;jettySize=auto;html=1;endArrow=block;endFill=1;fontSize=10;fontStyle=1;horizontal=1;verticalAlign=middle;labelPosition=center;verticalLabelPosition=middle;align=center;fontFamily=Helvetica;" parent="1" edge="1">
                    <mxGeometry relative="1" as="geometry">
                        <mxPoint x="149" y="1044" as="sourcePoint"/>
                    </mxGeometry>
                </mxCell>
                <mxCell id="238" value="4-6" style="edgeStyle=orthogonalEdgeStyle;rounded=0;orthogonalLoop=1;jettySize=auto;html=1;fontSize=10;endArrow=block;endFill=1;fontStyle=1;horizontal=1;verticalAlign=middle;labelPosition=center;verticalLabelPosition=middle;align=center;fontFamily=Helvetica;" parent="1" edge="1">
                    <mxGeometry relative="1" as="geometry">
                        <mxPoint x="189" y="883.5" as="targetPoint"/>
                    </mxGeometry>
                </mxCell>
                <mxCell id="258" value="4-6" style="edgeStyle=orthogonalEdgeStyle;rounded=0;orthogonalLoop=1;jettySize=auto;html=1;entryX=0;entryY=0.25;entryDx=0;entryDy=0;endArrow=block;endFill=1;fontSize=10;exitX=1;exitY=0.75;exitDx=0;exitDy=0;fontStyle=1;horizontal=1;verticalAlign=middle;labelPosition=center;verticalLabelPosition=middle;align=center;fontFamily=Helvetica;" parent="1" edge="1">
                    <mxGeometry relative="1" as="geometry">
                        <mxPoint x="269" y="1074" as="targetPoint"/>
                    </mxGeometry>
                </mxCell>
                <mxCell id="249" value="2-3" style="edgeStyle=orthogonalEdgeStyle;rounded=0;orthogonalLoop=1;jettySize=auto;html=1;entryX=0;entryY=0.5;entryDx=0;entryDy=0;fontSize=10;exitX=1;exitY=0.25;exitDx=0;exitDy=0;endArrow=block;endFill=1;fontStyle=1;horizontal=1;verticalAlign=middle;labelPosition=center;verticalLabelPosition=middle;align=center;fontFamily=Helvetica;" parent="1" edge="1">
                    <mxGeometry relative="1" as="geometry">
                        <mxPoint x="269" y="843.5" as="targetPoint"/>
                    </mxGeometry>
                </mxCell>
                <mxCell id="283" value="3-6" style="edgeStyle=orthogonalEdgeStyle;rounded=0;orthogonalLoop=1;jettySize=auto;html=1;entryX=0;entryY=0.5;entryDx=0;entryDy=0;endArrow=block;endFill=1;fontFamily=Helvetica;fontSize=10;fontColor=#000000;fontStyle=1" parent="1" edge="1">
                    <mxGeometry relative="1" as="geometry">
                        <mxPoint x="309" y="1084" as="sourcePoint"/>
                    </mxGeometry>
                </mxCell>
                <mxCell id="276" value="1-3" style="edgeStyle=orthogonalEdgeStyle;rounded=0;orthogonalLoop=1;jettySize=auto;html=1;entryX=0;entryY=0.25;entryDx=0;entryDy=0;endArrow=block;endFill=1;fontFamily=Helvetica;fontSize=10;fontColor=#000000;exitX=1;exitY=0.25;exitDx=0;exitDy=0;fontStyle=1" parent="1" edge="1">
                    <mxGeometry relative="1" as="geometry">
                        <mxPoint x="349" y="833.5" as="targetPoint"/>
                    </mxGeometry>
                </mxCell>
                <mxCell id="300" value="1-4" style="edgeStyle=orthogonalEdgeStyle;rounded=0;orthogonalLoop=1;jettySize=auto;html=1;entryX=0.25;entryY=1;entryDx=0;entryDy=0;endArrow=block;endFill=1;fontFamily=Helvetica;fontSize=10;fontColor=#000000;fontStyle=1" parent="1" edge="1">
                    <mxGeometry relative="1" as="geometry">
                        <Array as="points">
                            <mxPoint x="439" y="1075"/>
                        </Array>
                        <mxPoint x="439" y="1064" as="targetPoint"/>
                    </mxGeometry>
                </mxCell>
                <mxCell id="309" value="6" style="edgeStyle=orthogonalEdgeStyle;rounded=0;orthogonalLoop=1;jettySize=auto;html=1;entryX=0.25;entryY=1;entryDx=0;entryDy=0;endArrow=block;endFill=1;fontFamily=Helvetica;fontSize=10;fontColor=#000000;exitX=1;exitY=0.75;exitDx=0;exitDy=0;fontStyle=1" parent="1" edge="1">
                    <mxGeometry relative="1" as="geometry">
                        <mxPoint x="599" y="1064" as="targetPoint"/>
                    </mxGeometry>
                </mxCell>
                <mxCell id="308" value="1-6" style="edgeStyle=orthogonalEdgeStyle;rounded=0;orthogonalLoop=1;jettySize=auto;html=1;entryX=0.5;entryY=0;entryDx=0;entryDy=0;endArrow=block;endFill=1;fontFamily=Helvetica;fontSize=10;fontColor=#000000;fontStyle=1" parent="1" edge="1">
                    <mxGeometry relative="1" as="geometry">
                        <mxPoint x="449" y="863.5" as="targetPoint"/>
                    </mxGeometry>
                </mxCell>
                <mxCell id="319" value="1-2" style="edgeStyle=orthogonalEdgeStyle;rounded=0;orthogonalLoop=1;jettySize=auto;html=1;entryX=0;entryY=0.5;entryDx=0;entryDy=0;endArrow=block;endFill=1;fontFamily=Helvetica;fontSize=10;fontColor=#000000;fontStyle=1" parent="1" edge="1">
                    <mxGeometry relative="1" as="geometry">
                        <mxPoint x="589" y="883" as="targetPoint"/>
                    </mxGeometry>
                </mxCell>
                <mxCell id="315" value="1-3" style="edgeStyle=orthogonalEdgeStyle;rounded=0;orthogonalLoop=1;jettySize=auto;html=1;entryX=0;entryY=0.75;entryDx=0;entryDy=0;endArrow=block;endFill=1;fontFamily=Helvetica;fontSize=10;fontColor=#000000;fontStyle=1" parent="1" edge="1">
                    <mxGeometry relative="1" as="geometry">
                        <Array as="points">
                            <mxPoint x="649" y="1054"/>
                        </Array>
                        <mxPoint x="669" y="1054" as="targetPoint"/>
                    </mxGeometry>
                </mxCell>
                <mxCell id="328" value="1-3" style="edgeStyle=orthogonalEdgeStyle;rounded=0;orthogonalLoop=1;jettySize=auto;html=1;entryX=0;entryY=0.5;entryDx=0;entryDy=0;endArrow=block;endFill=1;fontFamily=Helvetica;fontSize=10;fontColor=#000000;fontStyle=1" parent="1" edge="1">
                    <mxGeometry relative="1" as="geometry">
                        <mxPoint x="629" y="883" as="sourcePoint"/>
                    </mxGeometry>
                </mxCell>
                <mxCell id="327" value="1-4" style="edgeStyle=orthogonalEdgeStyle;rounded=0;orthogonalLoop=1;jettySize=auto;html=1;entryX=1;entryY=0.5;entryDx=0;entryDy=0;endArrow=block;endFill=1;fontFamily=Helvetica;fontSize=10;fontColor=#000000;fontStyle=1" parent="1" edge="1">
                    <mxGeometry relative="1" as="geometry">
                        <mxPoint x="669" y="1044" as="sourcePoint"/>
                    </mxGeometry>
                </mxCell>
                <mxCell id="TPcebYR7O968TR7-VPbS-356" style="rounded=0;orthogonalLoop=1;jettySize=auto;html=1;fontSize=16;entryX=0;entryY=0.25;entryDx=0;entryDy=0;exitX=1;exitY=0.75;exitDx=0;exitDy=0;edgeStyle=entityRelationEdgeStyle;strokeColor=#990000;strokeWidth=4;endArrow=blockThin;endFill=1;" parent="1" source="jTKj2u-NiL81DQnvxjO0-335" target="jTKj2u-NiL81DQnvxjO0-339" edge="1">
                    <mxGeometry relative="1" as="geometry">
                        <mxPoint x="315" y="630.1666666666667" as="targetPoint"/>
                    </mxGeometry>
                </mxCell>
                <mxCell id="TPcebYR7O968TR7-VPbS-358" style="edgeStyle=none;rounded=0;orthogonalLoop=1;jettySize=auto;html=1;fontSize=16;strokeWidth=4;endArrow=blockThin;endFill=1;strokeColor=#009900;" parent="1" source="jTKj2u-NiL81DQnvxjO0-335" target="jTKj2u-NiL81DQnvxjO0-337" edge="1">
                    <mxGeometry relative="1" as="geometry"/>
                </mxCell>
                <mxCell id="jTKj2u-NiL81DQnvxjO0-335" value="Space 1&lt;br&gt;Hard" style="rounded=0;whiteSpace=wrap;html=1;fontSize=24;fontStyle=2" parent="1" vertex="1">
                    <mxGeometry x="184.5" y="494" width="100" height="100" as="geometry"/>
                </mxCell>
                <mxCell id="TPcebYR7O968TR7-VPbS-357" style="edgeStyle=entityRelationEdgeStyle;rounded=0;orthogonalLoop=1;jettySize=auto;html=1;entryX=0;entryY=0.75;entryDx=0;entryDy=0;fontSize=16;exitX=1;exitY=0.25;exitDx=0;exitDy=0;strokeWidth=4;endArrow=blockThin;endFill=1;strokeColor=#009900;" parent="1" source="jTKj2u-NiL81DQnvxjO0-336" target="jTKj2u-NiL81DQnvxjO0-337" edge="1">
                    <mxGeometry relative="1" as="geometry"/>
                </mxCell>
                <mxCell id="TPcebYR7O968TR7-VPbS-359" style="edgeStyle=orthogonalEdgeStyle;rounded=0;orthogonalLoop=1;jettySize=auto;html=1;entryX=0;entryY=0.5;entryDx=0;entryDy=0;fontSize=16;strokeWidth=4;endArrow=blockThin;endFill=1;strokeColor=#990000;exitX=0.5;exitY=1;exitDx=0;exitDy=0;" parent="1" source="jTKj2u-NiL81DQnvxjO0-336" target="TPcebYR7O968TR7-VPbS-377" edge="1">
                    <mxGeometry relative="1" as="geometry"/>
                </mxCell>
                <mxCell id="jTKj2u-NiL81DQnvxjO0-336" value="Space 1&lt;br&gt;Easy" style="rounded=0;whiteSpace=wrap;html=1;fontSize=24;fontStyle=2" parent="1" vertex="1">
                    <mxGeometry x="184.5" y="654" width="100" height="100" as="geometry"/>
                </mxCell>
                <mxCell id="TPcebYR7O968TR7-VPbS-360" style="edgeStyle=entityRelationEdgeStyle;rounded=0;orthogonalLoop=1;jettySize=auto;html=1;entryX=0.055;entryY=0.5;entryDx=0;entryDy=0;entryPerimeter=0;fontSize=16;strokeWidth=4;endArrow=blockThin;endFill=1;strokeColor=#009900;" parent="1" source="jTKj2u-NiL81DQnvxjO0-337" target="jTKj2u-NiL81DQnvxjO0-341" edge="1">
                    <mxGeometry relative="1" as="geometry"/>
                </mxCell>
                <mxCell id="TPcebYR7O968TR7-VPbS-361" style="edgeStyle=entityRelationEdgeStyle;rounded=0;orthogonalLoop=1;jettySize=auto;html=1;entryX=0;entryY=0.25;entryDx=0;entryDy=0;fontSize=16;exitX=1;exitY=0.75;exitDx=0;exitDy=0;strokeColor=#990000;strokeWidth=4;endArrow=blockThin;endFill=1;" parent="1" source="jTKj2u-NiL81DQnvxjO0-337" target="jTKj2u-NiL81DQnvxjO0-342" edge="1">
                    <mxGeometry relative="1" as="geometry"/>
                </mxCell>
                <mxCell id="jTKj2u-NiL81DQnvxjO0-337" value="Space 2&lt;br&gt;Hard" style="rounded=0;whiteSpace=wrap;html=1;fontSize=24;fontStyle=2" parent="1" vertex="1">
                    <mxGeometry x="359.5" y="494" width="100" height="100" as="geometry"/>
                </mxCell>
                <mxCell id="TPcebYR7O968TR7-VPbS-362" style="edgeStyle=entityRelationEdgeStyle;rounded=0;orthogonalLoop=1;jettySize=auto;html=1;entryX=0;entryY=0.75;entryDx=0;entryDy=0;fontSize=16;exitX=1;exitY=0.25;exitDx=0;exitDy=0;strokeWidth=4;endArrow=blockThin;endFill=1;strokeColor=#009900;" parent="1" source="jTKj2u-NiL81DQnvxjO0-339" target="jTKj2u-NiL81DQnvxjO0-341" edge="1">
                    <mxGeometry relative="1" as="geometry"/>
                </mxCell>
                <mxCell id="TPcebYR7O968TR7-VPbS-363" style="rounded=0;orthogonalLoop=1;jettySize=auto;html=1;entryX=0;entryY=0.5;entryDx=0;entryDy=0;fontSize=16;strokeWidth=4;endArrow=blockThin;endFill=1;strokeColor=#990000;exitX=0.5;exitY=1;exitDx=0;exitDy=0;edgeStyle=orthogonalEdgeStyle;" parent="1" source="jTKj2u-NiL81DQnvxjO0-339" target="TPcebYR7O968TR7-VPbS-377" edge="1">
                    <mxGeometry relative="1" as="geometry"/>
                </mxCell>
                <mxCell id="jTKj2u-NiL81DQnvxjO0-339" value="Space 2&lt;br&gt;Easy" style="rounded=0;whiteSpace=wrap;html=1;fontSize=24;fontStyle=2" parent="1" vertex="1">
                    <mxGeometry x="359.5" y="654" width="100" height="100" as="geometry"/>
                </mxCell>
                <mxCell id="TPcebYR7O968TR7-VPbS-365" style="edgeStyle=entityRelationEdgeStyle;rounded=0;orthogonalLoop=1;jettySize=auto;html=1;entryX=0;entryY=0.5;entryDx=0;entryDy=0;fontSize=16;strokeWidth=4;endArrow=blockThin;endFill=1;strokeColor=#009900;" parent="1" source="jTKj2u-NiL81DQnvxjO0-341" target="jTKj2u-NiL81DQnvxjO0-343" edge="1">
                    <mxGeometry relative="1" as="geometry"/>
                </mxCell>
                <mxCell id="TPcebYR7O968TR7-VPbS-367" style="edgeStyle=entityRelationEdgeStyle;rounded=0;orthogonalLoop=1;jettySize=auto;html=1;entryX=0;entryY=0.25;entryDx=0;entryDy=0;fontSize=16;exitX=1;exitY=0.75;exitDx=0;exitDy=0;strokeColor=#990000;strokeWidth=4;endArrow=blockThin;endFill=1;" parent="1" source="jTKj2u-NiL81DQnvxjO0-341" target="jTKj2u-NiL81DQnvxjO0-344" edge="1">
                    <mxGeometry relative="1" as="geometry"/>
                </mxCell>
                <mxCell id="jTKj2u-NiL81DQnvxjO0-341" value="Space 3&lt;br&gt;Hard" style="rounded=0;whiteSpace=wrap;html=1;fontSize=24;fontStyle=2" parent="1" vertex="1">
                    <mxGeometry x="535.49" y="494" width="100" height="100" as="geometry"/>
                </mxCell>
                <mxCell id="TPcebYR7O968TR7-VPbS-364" style="rounded=0;orthogonalLoop=1;jettySize=auto;html=1;fontSize=16;strokeWidth=4;endArrow=blockThin;endFill=1;strokeColor=#990000;entryX=0.5;entryY=0;entryDx=0;entryDy=0;exitX=0.5;exitY=1;exitDx=0;exitDy=0;" parent="1" source="jTKj2u-NiL81DQnvxjO0-342" target="TPcebYR7O968TR7-VPbS-377" edge="1">
                    <mxGeometry relative="1" as="geometry"/>
                </mxCell>
                <mxCell id="TPcebYR7O968TR7-VPbS-368" style="edgeStyle=entityRelationEdgeStyle;rounded=0;orthogonalLoop=1;jettySize=auto;html=1;entryX=0;entryY=0.75;entryDx=0;entryDy=0;fontSize=16;exitX=1;exitY=0.25;exitDx=0;exitDy=0;strokeWidth=4;endArrow=blockThin;endFill=1;strokeColor=#009900;" parent="1" source="jTKj2u-NiL81DQnvxjO0-342" target="jTKj2u-NiL81DQnvxjO0-343" edge="1">
                    <mxGeometry relative="1" as="geometry">
                        <mxPoint x="661" y="675" as="sourcePoint"/>
                    </mxGeometry>
                </mxCell>
                <mxCell id="jTKj2u-NiL81DQnvxjO0-342" value="Space 3&lt;br&gt;Easy" style="rounded=0;whiteSpace=wrap;html=1;fontSize=24;fontStyle=2" parent="1" vertex="1">
                    <mxGeometry x="535.49" y="654" width="100" height="100" as="geometry"/>
                </mxCell>
                <mxCell id="TPcebYR7O968TR7-VPbS-371" style="edgeStyle=none;rounded=0;orthogonalLoop=1;jettySize=auto;html=1;entryX=0;entryY=0.5;entryDx=0;entryDy=0;fontSize=16;strokeWidth=4;endArrow=blockThin;endFill=1;strokeColor=#009900;" parent="1" source="jTKj2u-NiL81DQnvxjO0-343" target="jTKj2u-NiL81DQnvxjO0-347" edge="1">
                    <mxGeometry relative="1" as="geometry"/>
                </mxCell>
                <mxCell id="TPcebYR7O968TR7-VPbS-375" style="edgeStyle=entityRelationEdgeStyle;rounded=0;orthogonalLoop=1;jettySize=auto;html=1;entryX=0;entryY=0.25;entryDx=0;entryDy=0;fontSize=16;exitX=1;exitY=0.75;exitDx=0;exitDy=0;strokeColor=#990000;strokeWidth=4;endArrow=blockThin;endFill=1;" parent="1" source="jTKj2u-NiL81DQnvxjO0-343" target="jTKj2u-NiL81DQnvxjO0-348" edge="1">
                    <mxGeometry relative="1" as="geometry"/>
                </mxCell>
                <mxCell id="jTKj2u-NiL81DQnvxjO0-343" value="Space 4&lt;br&gt;Hard" style="rounded=0;whiteSpace=wrap;html=1;fontSize=24;fontStyle=2" parent="1" vertex="1">
                    <mxGeometry x="708.5" y="494" width="100" height="100" as="geometry"/>
                </mxCell>
                <mxCell id="TPcebYR7O968TR7-VPbS-373" style="edgeStyle=entityRelationEdgeStyle;rounded=0;orthogonalLoop=1;jettySize=auto;html=1;entryX=0;entryY=0.75;entryDx=0;entryDy=0;fontSize=16;exitX=1;exitY=0.25;exitDx=0;exitDy=0;strokeWidth=4;endArrow=blockThin;endFill=1;strokeColor=#009900;" parent="1" source="jTKj2u-NiL81DQnvxjO0-344" target="jTKj2u-NiL81DQnvxjO0-347" edge="1">
                    <mxGeometry relative="1" as="geometry"/>
                </mxCell>
                <mxCell id="TPcebYR7O968TR7-VPbS-376" style="edgeStyle=orthogonalEdgeStyle;rounded=0;orthogonalLoop=1;jettySize=auto;html=1;entryX=1;entryY=0.5;entryDx=0;entryDy=0;fontSize=16;strokeWidth=4;endArrow=blockThin;endFill=1;strokeColor=#990000;exitX=0.5;exitY=1;exitDx=0;exitDy=0;" parent="1" source="jTKj2u-NiL81DQnvxjO0-344" target="TPcebYR7O968TR7-VPbS-377" edge="1">
                    <mxGeometry relative="1" as="geometry"/>
                </mxCell>
                <mxCell id="jTKj2u-NiL81DQnvxjO0-344" value="Space 4&lt;br&gt;Easy" style="rounded=0;whiteSpace=wrap;html=1;fontSize=24;fontStyle=2" parent="1" vertex="1">
                    <mxGeometry x="708.5" y="654" width="100" height="100" as="geometry"/>
                </mxCell>
                <mxCell id="TPcebYR7O968TR7-VPbS-369" style="rounded=0;orthogonalLoop=1;jettySize=auto;html=1;entryX=0;entryY=0.25;entryDx=0;entryDy=0;fontSize=16;exitX=1;exitY=0.75;exitDx=0;exitDy=0;strokeWidth=4;endArrow=blockThin;endFill=1;edgeStyle=entityRelationEdgeStyle;strokeColor=#009900;" parent="1" source="jTKj2u-NiL81DQnvxjO0-347" target="85" edge="1">
                    <mxGeometry relative="1" as="geometry"/>
                </mxCell>
                <mxCell id="TPcebYR7O968TR7-VPbS-380" style="edgeStyle=orthogonalEdgeStyle;rounded=0;orthogonalLoop=1;jettySize=auto;html=1;entryX=1;entryY=0.5;entryDx=0;entryDy=0;endArrow=blockThin;endFill=1;strokeColor=#990000;strokeWidth=4;fontSize=16;exitX=0.75;exitY=1;exitDx=0;exitDy=0;" parent="1" source="jTKj2u-NiL81DQnvxjO0-347" target="TPcebYR7O968TR7-VPbS-377" edge="1">
                    <mxGeometry relative="1" as="geometry">
                        <Array as="points">
                            <mxPoint x="959" y="623"/>
                            <mxPoint x="1002" y="623"/>
                            <mxPoint x="1002" y="790"/>
                        </Array>
                    </mxGeometry>
                </mxCell>
                <mxCell id="jTKj2u-NiL81DQnvxjO0-347" value="Space 5&lt;br&gt;Hard" style="rounded=0;whiteSpace=wrap;html=1;fontSize=24;fontStyle=2" parent="1" vertex="1">
                    <mxGeometry x="883.5" y="494" width="100" height="100" as="geometry"/>
                </mxCell>
                <mxCell id="TPcebYR7O968TR7-VPbS-370" style="rounded=0;orthogonalLoop=1;jettySize=auto;html=1;entryX=0;entryY=0.75;entryDx=0;entryDy=0;fontSize=16;exitX=1;exitY=0.25;exitDx=0;exitDy=0;strokeWidth=4;endArrow=blockThin;endFill=1;edgeStyle=entityRelationEdgeStyle;strokeColor=#009900;" parent="1" source="jTKj2u-NiL81DQnvxjO0-348" target="85" edge="1">
                    <mxGeometry relative="1" as="geometry"/>
                </mxCell>
                <mxCell id="TPcebYR7O968TR7-VPbS-379" style="edgeStyle=orthogonalEdgeStyle;rounded=0;orthogonalLoop=1;jettySize=auto;html=1;entryX=1;entryY=0.5;entryDx=0;entryDy=0;endArrow=blockThin;endFill=1;strokeWidth=4;fontSize=16;exitX=0.5;exitY=1;exitDx=0;exitDy=0;strokeColor=#990000;" parent="1" source="jTKj2u-NiL81DQnvxjO0-348" target="TPcebYR7O968TR7-VPbS-377" edge="1">
                    <mxGeometry relative="1" as="geometry"/>
                </mxCell>
                <mxCell id="jTKj2u-NiL81DQnvxjO0-348" value="Space 5&lt;br&gt;Easy" style="rounded=0;whiteSpace=wrap;html=1;fontSize=24;fontStyle=2" parent="1" vertex="1">
                    <mxGeometry x="883.5" y="654" width="100" height="100" as="geometry"/>
                </mxCell>
                <mxCell id="TPcebYR7O968TR7-VPbS-348" value="Player 1 Note Area&lt;br&gt;&lt;br&gt;___________________________________&lt;br&gt;&lt;br&gt;___________________________________&lt;br&gt;&lt;br&gt;___________________________________&lt;br&gt;&lt;br&gt;___________________________________&lt;br&gt;&lt;br&gt;___________________________________" style="text;html=1;strokeColor=none;fillColor=none;align=left;verticalAlign=top;whiteSpace=wrap;rounded=0;" parent="1" vertex="1">
                    <mxGeometry x="674" y="8" width="239" height="162" as="geometry"/>
                </mxCell>
                <mxCell id="TPcebYR7O968TR7-VPbS-350" value="Player 2 Note Area&lt;br&gt;&lt;br&gt;___________________________________&lt;br&gt;&lt;br&gt;___________________________________&lt;br&gt;&lt;br&gt;___________________________________&lt;br&gt;&lt;br&gt;___________________________________&lt;br&gt;&lt;br&gt;___________________________________" style="text;html=1;strokeColor=none;fillColor=none;align=left;verticalAlign=top;whiteSpace=wrap;rounded=0;" parent="1" vertex="1">
                    <mxGeometry x="924" y="8" width="238" height="165" as="geometry"/>
                </mxCell>
                <mxCell id="TPcebYR7O968TR7-VPbS-353" value="rules need work&lt;br&gt;" style="text;html=1;strokeColor=none;fillColor=none;align=left;verticalAlign=top;whiteSpace=wrap;rounded=0;" vertex="1" parent="1">
                    <mxGeometry x="465" y="8" width="200" height="174" as="geometry"/>
                </mxCell>
                <mxCell id="TPcebYR7O968TR7-VPbS-354" value="Both players start at 20 HP. Each space will have a battle. To attack, roll both D6's to damage the enemy. The enemy will then attack, rolling 1D6 to hit you. If you die, move on to the next space, but the easy side. If you kill the enemy, move onto the next space's hard side. Whether you die or win, take an item from the loot pool" style="text;html=1;strokeColor=none;fillColor=none;align=left;verticalAlign=top;whiteSpace=wrap;rounded=0;" parent="1" vertex="1">
                    <mxGeometry x="241" y="5.75" width="200" height="174" as="geometry"/>
                </mxCell>
                <mxCell id="TPcebYR7O968TR7-VPbS-355" value="1-2 players. You need two six-sided dice to play. Both players start at the start point, and progress depending on their first roll of a D6. Every time an enemy attacks, the other player gets to go." style="text;html=1;strokeColor=none;fillColor=none;align=left;verticalAlign=top;whiteSpace=wrap;rounded=0;" parent="1" vertex="1">
                    <mxGeometry x="20" y="43.75" width="200" height="136" as="geometry"/>
                </mxCell>
                <mxCell id="TPcebYR7O968TR7-VPbS-336" value="&lt;font style=&quot;font-size: 16px ; line-height: 100%&quot;&gt;&lt;u&gt;Space 1&amp;nbsp; &amp;nbsp; &amp;nbsp; &amp;nbsp; &amp;nbsp; &amp;nbsp; &amp;nbsp; &amp;nbsp; &amp;nbsp; &amp;nbsp; &amp;nbsp; &amp;nbsp; &amp;nbsp; &amp;nbsp; &amp;nbsp; &amp;nbsp; &amp;nbsp; &amp;nbsp;&amp;nbsp;&lt;/u&gt;&lt;br style=&quot;font-size: 16px&quot;&gt;&lt;b style=&quot;font-size: 16px&quot;&gt;Hard - ORK &lt;/b&gt;&lt;span style=&quot;font-size: 16px&quot;&gt;(&lt;/span&gt;10 HP)&lt;br style=&quot;font-size: 16px&quot;&gt;&lt;br style=&quot;font-size: 16px&quot;&gt;Loot:&amp;nbsp; &amp;nbsp; &amp;nbsp; &amp;nbsp; &amp;nbsp; &amp;nbsp; &amp;nbsp; &amp;nbsp; &amp;nbsp; &amp;nbsp; &amp;nbsp; &amp;nbsp; &amp;nbsp; &amp;nbsp; &amp;nbsp; &amp;nbsp; &amp;nbsp; &amp;nbsp; &amp;nbsp; &amp;nbsp; &amp;nbsp;&amp;nbsp;&lt;br style=&quot;font-size: 16px&quot;&gt;HP Bonus +5&lt;br style=&quot;font-size: 16px&quot;&gt;Damage Bonus +3&lt;br style=&quot;font-size: 16px&quot;&gt;&lt;u&gt;&amp;nbsp; &amp;nbsp; &amp;nbsp; &amp;nbsp; &amp;nbsp; &amp;nbsp; &amp;nbsp; &amp;nbsp; &amp;nbsp; &amp;nbsp; &amp;nbsp; &amp;nbsp; &amp;nbsp; &amp;nbsp; &amp;nbsp; &amp;nbsp; &amp;nbsp; &amp;nbsp; &amp;nbsp; &amp;nbsp; &amp;nbsp; &amp;nbsp; &amp;nbsp; &amp;nbsp; &amp;nbsp;&amp;nbsp;&lt;/u&gt;&lt;br style=&quot;font-size: 16px&quot;&gt;&lt;b style=&quot;font-size: 16px&quot;&gt;Easy - GOBLIN&lt;/b&gt;&lt;span style=&quot;font-size: 16px&quot;&gt;&amp;nbsp;(6 HP)&lt;br style=&quot;font-size: 16px&quot;&gt;&lt;/span&gt;&lt;br style=&quot;font-size: 16px&quot;&gt;Loot:&amp;nbsp; &amp;nbsp; &amp;nbsp; &amp;nbsp; &amp;nbsp; &amp;nbsp; &amp;nbsp; &amp;nbsp; &amp;nbsp; &amp;nbsp; &amp;nbsp; &amp;nbsp; &amp;nbsp; &amp;nbsp; &amp;nbsp; &amp;nbsp; &amp;nbsp; &amp;nbsp; &amp;nbsp; &amp;nbsp; &amp;nbsp;&amp;nbsp;&lt;br style=&quot;font-size: 16px&quot;&gt;HP Bonus +10&lt;br&gt;&lt;u&gt;&amp;nbsp; &amp;nbsp; &amp;nbsp; &amp;nbsp; &amp;nbsp; &amp;nbsp; &amp;nbsp; &amp;nbsp; &amp;nbsp; &amp;nbsp; &amp;nbsp; &amp;nbsp; &amp;nbsp; &amp;nbsp; &amp;nbsp; &amp;nbsp; &amp;nbsp; &amp;nbsp; &amp;nbsp; &amp;nbsp; &amp;nbsp; &amp;nbsp; &amp;nbsp; &amp;nbsp; &amp;nbsp;&amp;nbsp;&lt;/u&gt;&lt;br&gt;&lt;/font&gt;" style="rounded=0;whiteSpace=wrap;html=1;fontSize=16;align=left;verticalAlign=top;" parent="1" vertex="1">
                    <mxGeometry x="20" y="187" width="226.19669277632724" height="297" as="geometry"/>
                </mxCell>
                <mxCell id="TPcebYR7O968TR7-VPbS-342" value="&lt;u&gt;Space 2&amp;nbsp; &amp;nbsp; &amp;nbsp; &amp;nbsp; &amp;nbsp; &amp;nbsp; &amp;nbsp; &amp;nbsp; &amp;nbsp; &amp;nbsp; &amp;nbsp; &amp;nbsp; &amp;nbsp; &amp;nbsp; &amp;nbsp; &amp;nbsp; &amp;nbsp; &amp;nbsp;&amp;nbsp;&lt;/u&gt;&lt;br&gt;Hard -&amp;nbsp;&lt;br&gt;&lt;br&gt;Loot:&lt;br&gt;&lt;br&gt;&lt;br&gt;Easy -&amp;nbsp;&lt;br&gt;&lt;br&gt;Loot:" style="rounded=0;whiteSpace=wrap;html=1;fontSize=16;align=left;verticalAlign=top;" parent="1" vertex="1">
                    <mxGeometry x="246.19669277632724" y="187" width="226.19669277632724" height="297" as="geometry"/>
                </mxCell>
                <mxCell id="TPcebYR7O968TR7-VPbS-343" value="Space 3&lt;br&gt;Hard -&amp;nbsp;&lt;br&gt;&lt;br&gt;Loot:&lt;br&gt;&lt;br&gt;&lt;br&gt;Easy -&amp;nbsp;&lt;br&gt;&lt;br&gt;Loot:" style="rounded=0;whiteSpace=wrap;html=1;fontSize=16;align=left;verticalAlign=top;" parent="1" vertex="1">
                    <mxGeometry x="472.3933855526545" y="187" width="226.19669277632724" height="297" as="geometry"/>
                </mxCell>
                <mxCell id="TPcebYR7O968TR7-VPbS-344" value="Space 4" style="rounded=0;whiteSpace=wrap;html=1;fontSize=16;align=left;verticalAlign=top;" parent="1" vertex="1">
                    <mxGeometry x="698.5900783289817" y="187" width="226.19669277632724" height="297" as="geometry"/>
                </mxCell>
                <mxCell id="TPcebYR7O968TR7-VPbS-345" value="Space 5" style="rounded=0;whiteSpace=wrap;html=1;fontSize=16;align=left;verticalAlign=top;" parent="1" vertex="1">
                    <mxGeometry x="923.8033072236727" y="187" width="226.19669277632724" height="297" as="geometry"/>
                </mxCell>
                <mxCell id="TPcebYR7O968TR7-VPbS-377" value="Dead" style="rounded=0;whiteSpace=wrap;html=1;fontSize=16;align=center;fontStyle=3" vertex="1" parent="1">
                    <mxGeometry x="525" y="773" width="120" height="34" as="geometry"/>
                </mxCell>
            </root>
        </mxGraphModel>
    </diagram>
</mxfile>
